<?xml version="1.0" encoding="utf-8"?>
<!-- Generator: Adobe Illustrator 24.3.0, SVG Export Plug-In . SVG Version: 6.00 Build 0)  -->
<svg version="1.1" id="레이어_1" xmlns="http://www.w3.org/2000/svg" xmlns:xlink="http://www.w3.org/1999/xlink" x="0px"
	 y="0px" viewBox="0 0 30 21" style="enable-background:new 0 0 30 21;" xml:space="preserve">
<style type="text/css">
	.st0{fill:#003366;}
</style>
<g>
	<path class="st0" d="M28.5,3h-27C0.7,3,0,2.3,0,1.5v0C0,0.7,0.7,0,1.5,0h27C29.3,0,30,0.7,30,1.5v0C30,2.3,29.3,3,28.5,3z"/>
</g>
<g>
	<path class="st0" d="M28.5,12h-27C0.7,12,0,11.3,0,10.5v0C0,9.7,0.7,9,1.5,9h27c0.8,0,1.5,0.7,1.5,1.5v0C30,11.3,29.3,12,28.5,12z"
		/>
</g>
<g>
	<path class="st0" d="M28.5,21h-27C0.7,21,0,20.3,0,19.5v0C0,18.7,0.7,18,1.5,18h27c0.8,0,1.5,0.7,1.5,1.5v0
		C30,20.3,29.3,21,28.5,21z"/>
</g>
</svg>
